<?xml version="1.0" encoding="utf-8"?>
<!-- Generator: Adobe Illustrator 16.2.0, SVG Export Plug-In . SVG Version: 6.00 Build 0)  -->
<!DOCTYPE svg PUBLIC "-//W3C//DTD SVG 1.1//EN" "http://www.w3.org/Graphics/SVG/1.1/DTD/svg11.dtd">
<svg version="1.1" id="Layer_1" xmlns="http://www.w3.org/2000/svg" xmlns:xlink="http://www.w3.org/1999/xlink" x="0px" y="0px"
	 width="100px" height="100px" viewBox="0 0 100 100" enable-background="new 0 0 100 100" xml:space="preserve">
<path fill="#FFFFFF" stroke="#000000" stroke-miterlimit="10" d="M16.083,56.529"/>
<polygon fill="#FFFFFF" stroke="#000000" stroke-miterlimit="10" points="97.965,90.829 2.403,90.829 2.403,31.152 50.185,60.989 
	97.965,31.152 "/>
<line fill="none" stroke="#000000" stroke-linecap="round" stroke-miterlimit="10" x1="2.403" y1="30.422" x2="50.185" y2="2.602"/>
<line fill="none" stroke="#000000" stroke-linecap="round" stroke-miterlimit="10" x1="50.185" y1="2.602" x2="97.965" y2="30.365"/>
<line fill="none" stroke="#000000" stroke-miterlimit="10" x1="26.294" y1="46.071" x2="26.294" y2="23.618"/>
<line fill="none" stroke="#000000" stroke-linecap="round" stroke-miterlimit="10" x1="26.294" y1="23.618" x2="74.075" y2="23.618"/>
<line fill="none" stroke="#000000" stroke-miterlimit="10" x1="74.075" y1="23.618" x2="74.075" y2="46.07"/>
<line fill="none" stroke="#000000" stroke-linecap="round" stroke-miterlimit="10" x1="30.754" y1="34.845" x2="69.613" y2="34.845"/>
<line fill="none" stroke="#000000" stroke-linecap="round" stroke-miterlimit="10" x1="69.615" y1="38.091" x2="30.755" y2="38.091"/>
<line fill="none" stroke="#000000" stroke-linecap="round" stroke-miterlimit="10" x1="69.613" y1="41.263" x2="30.754" y2="41.263"/>
<line fill="none" stroke="#000000" stroke-linecap="round" stroke-miterlimit="10" x1="69.613" y1="44.436" x2="30.754" y2="44.436"/>
<line fill="none" stroke="#000000" stroke-linecap="round" stroke-miterlimit="10" x1="69.613" y1="47.41" x2="30.753" y2="47.41"/>
<line fill="none" stroke="#000000" stroke-linecap="round" stroke-miterlimit="10" x1="67.487" y1="50.186" x2="32.882" y2="50.186"/>
<line fill="none" stroke="#000000" stroke-miterlimit="10" x1="63.042" y1="52.96" x2="37.326" y2="52.96"/>
<line fill="none" stroke="#000000" stroke-miterlimit="10" x1="58.597" y1="55.736" x2="41.771" y2="55.736"/>
<line fill="none" stroke="#000000" stroke-miterlimit="10" x1="54.788" y1="58.115" x2="45.582" y2="58.115"/>
<line fill="none" stroke="#000000" stroke-linecap="round" stroke-miterlimit="10" x1="51.613" y1="60.098" x2="48.755" y2="60.098"/>
<text transform="matrix(1 0 0 1 37.6943 83.6904)" font-family="'MyanmarText-Bold'" font-size="25.4806">@</text>
</svg>
