<?xml version="1.0" encoding="utf-8"?>
<!-- Generator: Adobe Illustrator 16.2.0, SVG Export Plug-In . SVG Version: 6.00 Build 0)  -->
<!DOCTYPE svg PUBLIC "-//W3C//DTD SVG 1.1//EN" "http://www.w3.org/Graphics/SVG/1.1/DTD/svg11.dtd">
<svg version="1.1" id="Layer_2" xmlns="http://www.w3.org/2000/svg" xmlns:xlink="http://www.w3.org/1999/xlink" x="0px" y="0px"
	 width="55px" height="55px" viewBox="0 0 55 55" enable-background="new 0 0 55 55" xml:space="preserve">
<path d="M32.695,1.604c0,0,1.203-1.604-0.638-1.604H14.012c0,0-7.36,0.962-10.12,8.495c0,0-2.832,6.492,1.274,12.182
	c0,0,1.769,4.729,9.908,5.45c0,0,0.098-0.002,0.243-0.01c-0.66,0.863-1.665,2.853,0.323,5.459c0,0-11.252-0.64-14.933,8.495
	c0,0-2.901,7.453,3.114,11.461c0,0,6.015,5.45,17.692,2.724c0,0,7.501-2.724,9.341-7.853c0,0,2.194-7.212-1.698-12.262l-6.581-6.573
	c0,0-1.871-1.579,0.902-3.931c0.549-0.33,1.09-0.706,1.617-1.129c0.026-0.015,0.046-0.031,0.073-0.046l-0.009-0.007
	c0.879-0.715,1.713-1.557,2.44-2.58c0,0,5.309-7.934-0.425-14.586l1.486-0.08L32.695,1.604z M25.616,43.021
	c-0.023,4.165-4.176,7.505-9.276,7.471c-5.101-0.035-9.218-3.438-9.194-7.599c0.023-4.162,4.176-7.505,9.277-7.47
	C21.523,35.462,25.638,38.862,25.616,43.021z M19.036,21.546c-2.818,1.304-6.434-1.324-8.075-5.871
	c-1.642-4.548-0.688-9.293,2.129-10.597c2.818-1.305,6.434,1.323,8.075,5.871C22.808,15.498,21.854,20.242,19.036,21.546z"/>
<polygon points="55.094,21.839 45.858,21.839 45.858,11.38 40.62,11.38 40.62,21.839 31.386,21.839 31.386,27.77 40.62,27.77 
	40.62,38.228 45.858,38.228 45.858,27.77 55.094,27.77 "/>
</svg>
