<?xml version="1.0" encoding="utf-8"?>
<!-- Generator: Adobe Illustrator 16.2.0, SVG Export Plug-In . SVG Version: 6.00 Build 0)  -->
<!DOCTYPE svg PUBLIC "-//W3C//DTD SVG 1.1//EN" "http://www.w3.org/Graphics/SVG/1.1/DTD/svg11.dtd">
<svg version="1.1" id="Layer_1" xmlns="http://www.w3.org/2000/svg" xmlns:xlink="http://www.w3.org/1999/xlink" x="0px" y="0px"
	 width="55px" height="55px" viewBox="0 0 55 55" enable-background="new 0 0 55 55" xml:space="preserve">
<polygon points="40.845,45.918 43.381,43.333 35.859,24.79 35.007,31.538 38.046,39.023 35.693,38.658 34.682,34.121 34.188,38.031 
	32.825,37.83 32.914,38.228 16.315,35.649 16.403,35.41 13.912,35.043 13.83,35.264 10.226,34.704 9.98,36.29 13.262,36.799 
	8.975,48.389 11.227,49.397 15.747,37.185 33.289,39.904 36.27,53.253 38.869,52.896 36.066,40.335 38.747,40.75 "/>
<path fill="#FFFFFF" stroke="#000000" stroke-miterlimit="10" d="M17.283,0.95l-1.475,10.714l-4.193,23.04l22.573,3.327L38.869,0.95
	H17.283z M33.834,37.417L12.167,34.25L17.75,1.417h20.584L33.834,37.417z"/>
</svg>
