<svg version="1.1" id="Layer_1" xmlns="http://www.w3.org/2000/svg" xmlns:xlink="http://www.w3.org/1999/xlink" x="0" y="0" width="45" height="45" viewBox="0 0 45 45" enable-background="new 0 0 45 45" xml:space="preserve"><path fill="#94A4A4" d="M35.17 27.02c0.02-0.06 0.03-0.13 0.05-0.19 0.01-0.04 0.02-0.08 0.03-0.11 0.01-0.06 0.03-0.12 0.04-0.18 0.01-0.04 0.02-0.09 0.03-0.13 0.01-0.05 0.02-0.11 0.03-0.17 0.01-0.05 0.02-0.1 0.03-0.14 0.01-0.05 0.02-0.1 0.03-0.15 0.01-0.05 0.02-0.11 0.03-0.16 0.01-0.05 0.02-0.1 0.02-0.14 0-0.02 0.01-0.04 0.01-0.05l1.12 0 0.09-0.84 -1.09-0.23c0-0.02 0-0.05 0.01-0.07 0-0.04 0-0.07 0.01-0.11 0-0.06 0.01-0.13 0.01-0.2 0-0.04 0-0.08 0-0.12 0-0.06 0-0.12 0-0.18 0-0.04 0-0.09 0-0.14 0-0.06 0-0.11 0-0.17 0-0.05 0-0.1 0-0.15 0-0.05 0-0.1 0-0.15 0-0.06 0-0.11-0.01-0.16 0-0.05 0-0.09-0.01-0.14 0-0.02 0-0.04 0-0.06l1.09-0.23 -0.09-0.84 -1.12 0c0-0.03-0.01-0.05-0.01-0.08 -0.01-0.04-0.01-0.07-0.02-0.1 -0.01-0.07-0.02-0.13-0.03-0.2 -0.01-0.04-0.01-0.08-0.02-0.12 -0.01-0.06-0.02-0.12-0.04-0.18 -0.01-0.04-0.02-0.09-0.03-0.13 -0.01-0.05-0.02-0.11-0.04-0.17 -0.01-0.05-0.02-0.1-0.03-0.15 -0.01-0.05-0.02-0.1-0.04-0.15 -0.01-0.05-0.03-0.11-0.04-0.16 -0.01-0.04-0.02-0.09-0.04-0.14 -0.01-0.02-0.01-0.04-0.02-0.06l1.02-0.45 -0.26-0.81 -1.09 0.23c-0.01-0.02-0.02-0.05-0.03-0.07 -0.01-0.03-0.03-0.07-0.04-0.1 -0.02-0.06-0.05-0.12-0.07-0.18 -0.02-0.04-0.03-0.08-0.05-0.11 -0.02-0.06-0.05-0.11-0.07-0.17 -0.02-0.04-0.04-0.08-0.05-0.13 -0.02-0.05-0.05-0.1-0.07-0.15 -0.02-0.05-0.04-0.09-0.06-0.14 -0.02-0.05-0.04-0.09-0.07-0.14 -0.02-0.05-0.05-0.1-0.07-0.15 -0.02-0.04-0.04-0.08-0.06-0.12 -0.01-0.02-0.02-0.04-0.02-0.05l0.9-0.66 -0.42-0.73 -1.02 0.45c-0.01-0.02-0.03-0.04-0.04-0.06 -0.02-0.03-0.04-0.06-0.06-0.09 -0.03-0.05-0.07-0.11-0.11-0.16 -0.02-0.04-0.05-0.07-0.07-0.11 -0.03-0.05-0.07-0.1-0.1-0.14 -0.03-0.04-0.05-0.08-0.08-0.11 -0.03-0.04-0.06-0.09-0.1-0.13 -0.03-0.04-0.06-0.08-0.09-0.12 -0.03-0.04-0.06-0.08-0.09-0.12 -0.03-0.04-0.07-0.09-0.1-0.13 -0.03-0.04-0.06-0.07-0.09-0.1 -0.01-0.02-0.02-0.03-0.04-0.05l0.75-0.83 -0.57-0.63 -0.91 0.65c-0.02-0.02-0.03-0.04-0.05-0.05 -0.03-0.03-0.05-0.05-0.08-0.08 -0.04-0.04-0.09-0.09-0.13-0.13 -0.03-0.03-0.06-0.06-0.09-0.09 -0.04-0.04-0.08-0.08-0.13-0.12 -0.04-0.03-0.07-0.07-0.11-0.1 -0.04-0.04-0.08-0.07-0.12-0.11 -0.04-0.04-0.08-0.07-0.12-0.1 -0.04-0.03-0.07-0.06-0.11-0.09 -0.04-0.04-0.09-0.07-0.13-0.11 -0.03-0.03-0.07-0.05-0.1-0.08 -0.02-0.01-0.03-0.03-0.05-0.04l0.56-0.97L30.51 11.92l-0.75 0.83c-0.02-0.01-0.04-0.02-0.06-0.04 -0.03-0.02-0.07-0.04-0.1-0.07 -0.05-0.03-0.1-0.07-0.16-0.1 -0.04-0.02-0.07-0.05-0.11-0.07 -0.05-0.03-0.1-0.06-0.15-0.09 -0.04-0.02-0.08-0.05-0.13-0.07 -0.04-0.03-0.09-0.05-0.14-0.08 -0.05-0.03-0.09-0.05-0.14-0.08 -0.04-0.02-0.08-0.04-0.13-0.07 -0.05-0.03-0.1-0.05-0.16-0.08 -0.04-0.02-0.08-0.04-0.12-0.06 -0.02-0.01-0.04-0.02-0.06-0.03l0.34-1.06 -0.77-0.34 -0.56 0.97c-0.03-0.01-0.06-0.02-0.1-0.04 -0.02-0.01-0.04-0.02-0.06-0.02 -0.08-0.03-0.15-0.06-0.23-0.08 -0.02-0.01-0.05-0.02-0.07-0.03 -0.07-0.02-0.14-0.05-0.21-0.07 -0.03-0.01-0.06-0.02-0.09-0.03 -0.06-0.02-0.13-0.04-0.2-0.06 -0.03-0.01-0.07-0.02-0.1-0.03 -0.06-0.02-0.12-0.04-0.19-0.05 -0.04-0.01-0.08-0.02-0.12-0.03 -0.06-0.02-0.12-0.03-0.17-0.05 -0.01 0-0.02-0.01-0.03-0.01l0.12-1.11 -0.83-0.18 -0.35 1.06c-0.04-0.01-0.07-0.01-0.1-0.02 -0.02 0-0.04-0.01-0.06-0.01 -0.08-0.01-0.16-0.02-0.24-0.04 -0.02 0-0.05-0.01-0.07-0.01 -0.08-0.01-0.15-0.02-0.23-0.03 -0.03 0-0.06-0.01-0.09-0.01 -0.07-0.01-0.14-0.01-0.22-0.02 -0.03 0-0.07-0.01-0.1-0.01 -0.07 0-0.13-0.01-0.2-0.01 -0.04 0-0.08 0-0.12-0.01 -0.06 0-0.12-0.01-0.19-0.01 -0.01 0-0.02 0-0.03 0l-0.12-1.11h-0.85l-0.12 1.11c-0.04 0-0.07 0-0.11 0.01 -0.02 0-0.04 0-0.06 0 -0.08 0-0.16 0.01-0.24 0.02 -0.02 0-0.05 0-0.07 0.01 -0.08 0.01-0.15 0.01-0.23 0.02 -0.03 0-0.06 0.01-0.09 0.01 -0.07 0.01-0.14 0.02-0.21 0.02 -0.03 0-0.07 0.01-0.1 0.01 -0.07 0.01-0.13 0.02-0.2 0.03 -0.04 0.01-0.08 0.01-0.12 0.02 -0.06 0.01-0.12 0.02-0.18 0.03 -0.01 0-0.02 0-0.03 0.01l-0.35-1.06 -0.83 0.18 0.11 1.11c-0.02 0.01-0.04 0.01-0.06 0.02 -0.04 0.01-0.08 0.02-0.12 0.03 -0.06 0.02-0.11 0.03-0.17 0.05 -0.04 0.01-0.09 0.03-0.13 0.04 -0.05 0.02-0.1 0.03-0.16 0.05 -0.05 0.02-0.1 0.03-0.15 0.05 -0.05 0.02-0.1 0.03-0.14 0.05 -0.05 0.02-0.11 0.04-0.16 0.05 -0.04 0.02-0.09 0.03-0.13 0.05 -0.06 0.02-0.11 0.04-0.17 0.06 -0.04 0.02-0.08 0.03-0.11 0.04 -0.02 0.01-0.04 0.02-0.06 0.03l-0.56-0.97 -0.77 0.35 0.34 1.06c-0.02 0.01-0.04 0.02-0.06 0.03 -0.04 0.02-0.08 0.04-0.12 0.06 -0.05 0.03-0.1 0.05-0.16 0.08 -0.04 0.02-0.08 0.05-0.13 0.07 -0.05 0.03-0.09 0.05-0.14 0.08 -0.05 0.03-0.09 0.05-0.14 0.08 -0.04 0.03-0.08 0.05-0.13 0.08 -0.05 0.03-0.1 0.06-0.15 0.09 -0.04 0.02-0.07 0.05-0.11 0.07 -0.05 0.03-0.1 0.07-0.16 0.1 -0.03 0.02-0.07 0.04-0.1 0.07 -0.02 0.01-0.04 0.03-0.06 0.04l-0.75-0.83 -0.69 0.5 0.56 0.97c-0.02 0.01-0.04 0.03-0.05 0.04 -0.03 0.03-0.07 0.05-0.1 0.08 -0.05 0.04-0.09 0.08-0.14 0.11 -0.04 0.03-0.07 0.06-0.11 0.09 -0.04 0.04-0.08 0.07-0.12 0.11 -0.04 0.03-0.08 0.07-0.12 0.1 -0.04 0.03-0.07 0.07-0.11 0.1 -0.04 0.04-0.08 0.08-0.12 0.12 -0.03 0.03-0.06 0.06-0.1 0.09 -0.04 0.04-0.09 0.09-0.13 0.13 -0.03 0.03-0.06 0.06-0.08 0.09 -0.02 0.02-0.03 0.03-0.05 0.05l-0.9-0.66 -0.57 0.63 0.75 0.83c-0.01 0.02-0.03 0.03-0.04 0.05 -0.03 0.03-0.06 0.07-0.08 0.1 -0.04 0.05-0.07 0.09-0.11 0.14 -0.03 0.04-0.06 0.08-0.09 0.12 -0.03 0.04-0.06 0.08-0.09 0.13 -0.03 0.04-0.06 0.09-0.1 0.13 -0.03 0.04-0.06 0.08-0.08 0.12 -0.03 0.05-0.07 0.1-0.1 0.14 -0.02 0.04-0.05 0.07-0.07 0.11 -0.04 0.05-0.07 0.11-0.1 0.16 -0.02 0.03-0.04 0.07-0.06 0.1 -0.01 0.02-0.03 0.04-0.04 0.06l-1.02-0.45 -0.42 0.74 0.9 0.66c-0.01 0.02-0.02 0.04-0.03 0.06 -0.02 0.04-0.04 0.08-0.06 0.12 -0.03 0.05-0.05 0.1-0.08 0.16 -0.02 0.04-0.04 0.09-0.06 0.13 -0.02 0.05-0.05 0.1-0.07 0.14 -0.02 0.05-0.04 0.1-0.07 0.14 -0.02 0.04-0.04 0.09-0.06 0.13 -0.02 0.05-0.04 0.11-0.07 0.16 -0.02 0.04-0.03 0.08-0.05 0.12 -0.02 0.06-0.05 0.12-0.07 0.18 -0.01 0.04-0.03 0.07-0.04 0.11 -0.01 0.02-0.02 0.05-0.03 0.07l-1.09-0.23 -0.26 0.81 1.02 0.46c-0.01 0.02-0.01 0.04-0.02 0.06 -0.01 0.04-0.02 0.08-0.03 0.12 -0.01 0.06-0.03 0.12-0.04 0.17 -0.01 0.05-0.02 0.09-0.03 0.14 -0.01 0.05-0.02 0.11-0.04 0.16 -0.01 0.05-0.02 0.1-0.03 0.15 -0.01 0.05-0.02 0.1-0.03 0.15 -0.01 0.06-0.02 0.11-0.03 0.17 -0.01 0.04-0.02 0.09-0.02 0.13 -0.01 0.06-0.02 0.12-0.03 0.18 -0.01 0.04-0.01 0.08-0.02 0.12 0 0.02-0.01 0.05-0.01 0.07L8.41 21.76 8.32 22.6l1.09 0.23c0 0.02 0 0.05 0 0.07 0 0.04 0 0.08-0.01 0.12 0 0.06 0 0.12-0.01 0.18 0 0.05 0 0.09 0 0.14 0 0.06 0 0.11 0 0.17 0 0.05 0 0.1 0 0.15s0 0.1 0 0.15c0 0.06 0 0.11 0 0.17 0 0.05 0 0.09 0 0.14 0 0.06 0.01 0.12 0.01 0.18 0 0.04 0.01 0.08 0.01 0.12 0 0.02 0 0.05 0 0.07L8.32 24.73l0.09 0.84 1.12 0c0 0.02 0.01 0.04 0.01 0.07 0.01 0.04 0.01 0.08 0.02 0.12 0.01 0.06 0.02 0.12 0.03 0.18 0.01 0.05 0.02 0.09 0.02 0.14 0.01 0.05 0.02 0.11 0.03 0.16 0.01 0.05 0.02 0.1 0.03 0.15 0.01 0.05 0.02 0.1 0.03 0.15 0.01 0.06 0.02 0.11 0.04 0.16 0.01 0.05 0.02 0.09 0.03 0.13 0.02 0.06 0.03 0.12 0.05 0.18 0.01 0.04 0.02 0.08 0.03 0.12 0.01 0.02 0.01 0.04 0.02 0.07l-1.02 0.46 0.26 0.81 1.09-0.23c0.01 0.02 0.02 0.04 0.02 0.06 0.02 0.04 0.03 0.08 0.04 0.12 0.02 0.06 0.04 0.11 0.07 0.17 0.02 0.04 0.03 0.08 0.05 0.13 0.02 0.05 0.04 0.1 0.07 0.15 0.02 0.05 0.04 0.09 0.06 0.14s0.04 0.09 0.06 0.14c0.02 0.05 0.05 0.1 0.07 0.15 0.02 0.04 0.04 0.08 0.06 0.12 0.03 0.06 0.05 0.11 0.08 0.16 0.02 0.04 0.04 0.07 0.06 0.11 0.01 0.02 0.02 0.04 0.03 0.06l-0.9 0.66 0.42 0.73 1.02-0.45c0.01 0.02 0.03 0.04 0.04 0.06 0.02 0.03 0.05 0.07 0.07 0.1 0.03 0.05 0.07 0.1 0.1 0.15 0.03 0.04 0.05 0.07 0.08 0.11 0.03 0.05 0.06 0.09 0.1 0.14 0.03 0.04 0.06 0.08 0.09 0.12 0.03 0.04 0.06 0.08 0.09 0.12 0.03 0.05 0.07 0.09 0.1 0.13 0.03 0.04 0.06 0.07 0.08 0.11 0.04 0.05 0.07 0.09 0.11 0.14 0.03 0.03 0.05 0.06 0.08 0.1 0.01 0.02 0.03 0.04 0.04 0.05l-0.75 0.83 0.57 0.63 0.9-0.65c0.02 0.02 0.03 0.03 0.05 0.05 0.03 0.03 0.06 0.06 0.09 0.09 0.04 0.04 0.09 0.09 0.13 0.13 0.03 0.03 0.07 0.06 0.1 0.1 0.04 0.04 0.08 0.08 0.12 0.11 0.04 0.03 0.08 0.07 0.11 0.1 0.04 0.03 0.08 0.07 0.11 0.1 0.04 0.04 0.08 0.07 0.13 0.11 0.03 0.03 0.07 0.06 0.11 0.09 0.05 0.04 0.09 0.08 0.14 0.12 0.03 0.03 0.06 0.05 0.1 0.08 0.02 0.01 0.04 0.03 0.05 0.04l-0.56 0.97 0.69 0.5 0.75-0.83c0.02 0.01 0.04 0.03 0.06 0.04 0.04 0.02 0.07 0.05 0.11 0.07 0.05 0.03 0.1 0.06 0.15 0.1 0.04 0.03 0.08 0.05 0.12 0.07 0.05 0.03 0.09 0.06 0.14 0.09 0.04 0.03 0.09 0.05 0.13 0.08 0.04 0.03 0.09 0.05 0.13 0.08 0.05 0.03 0.1 0.06 0.15 0.08 0.04 0.02 0.08 0.04 0.12 0.06 0.06 0.03 0.11 0.06 0.16 0.09 0.04 0.02 0.07 0.04 0.11 0.05 0.02 0.01 0.04 0.02 0.06 0.03l-0.34 1.06 0.77 0.35 0.56-0.97c0.01 0 0.01 0.01 0.02 0.01 0.06 0.02 0.12 0.05 0.19 0.07 0.03 0.01 0.06 0.03 0.1 0.04 0.07 0.03 0.13 0.05 0.2 0.07 0.03 0.01 0.06 0.02 0.08 0.03 0.07 0.02 0.15 0.05 0.22 0.07 0.02 0.01 0.05 0.02 0.07 0.02 0.08 0.02 0.16 0.05 0.24 0.07 0.02 0.01 0.04 0.01 0.06 0.02 0.08 0.02 0.17 0.05 0.25 0.07 0.02 0.01 0.03 0.01 0.05 0.01 0.04 0.01 0.07 0.02 0.11 0.03l-0.11 1.11 0.83 0.18 0.35-1.06c0.01 0 0.02 0 0.02 0 0.07 0.01 0.13 0.02 0.2 0.03 0.04 0.01 0.07 0.01 0.1 0.02 0.07 0.01 0.14 0.02 0.21 0.03 0.03 0.01 0.06 0.01 0.09 0.01 0.08 0.01 0.15 0.02 0.23 0.03 0.03 0 0.05 0.01 0.08 0.01 0.08 0.01 0.16 0.01 0.24 0.02 0.02 0 0.04 0.01 0.06 0.01 0.09 0.01 0.17 0.01 0.26 0.02 0.02 0 0.03 0 0.05 0 0.04 0 0.08 0.01 0.11 0.01l0.12 1.11h0.85l0.12-1.11c0.01 0 0.02 0 0.02 0 0.07 0 0.13-0.01 0.2-0.01 0.04 0 0.07 0 0.11-0.01 0.07 0 0.14-0.01 0.21-0.01 0.03 0 0.06-0.01 0.09-0.01 0.07-0.01 0.15-0.01 0.23-0.02 0.03 0 0.05-0.01 0.08-0.01 0.08-0.01 0.16-0.02 0.24-0.03 0.02 0 0.04 0 0.06-0.01 0.09-0.01 0.17-0.02 0.25-0.04 0.02 0 0.03-0.01 0.05-0.01 0.04-0.01 0.07-0.01 0.11-0.02l0.35 1.06 0.83-0.18 -0.11-1.11c0.02 0 0.05-0.01 0.07-0.02 0.04-0.01 0.08-0.02 0.12-0.03 0.06-0.01 0.12-0.03 0.18-0.05 0.04-0.01 0.09-0.02 0.13-0.04 0.05-0.02 0.11-0.03 0.16-0.05 0.05-0.01 0.1-0.03 0.15-0.05 0.05-0.01 0.1-0.03 0.14-0.05 0.05-0.02 0.1-0.04 0.16-0.05 0.04-0.02 0.09-0.03 0.13-0.05 0.06-0.02 0.12-0.04 0.17-0.06 0.04-0.01 0.08-0.03 0.12-0.04 0.02-0.01 0.04-0.02 0.06-0.02l0.56 0.97 0.77-0.34 -0.34-1.06c0.02-0.01 0.04-0.02 0.06-0.03 0.04-0.02 0.07-0.04 0.11-0.06 0.05-0.03 0.11-0.05 0.16-0.08 0.04-0.02 0.08-0.04 0.13-0.07 0.05-0.02 0.09-0.05 0.14-0.08 0.04-0.02 0.09-0.05 0.13-0.08 0.04-0.02 0.09-0.05 0.13-0.07 0.05-0.03 0.1-0.06 0.14-0.09 0.04-0.02 0.08-0.05 0.12-0.07 0.05-0.03 0.1-0.06 0.15-0.1 0.03-0.02 0.07-0.04 0.1-0.07 0.02-0.01 0.04-0.02 0.06-0.04l0.75 0.83 0.69-0.5 -0.56-0.97c0.02-0.01 0.04-0.03 0.05-0.04 0.03-0.03 0.07-0.05 0.1-0.08 0.05-0.04 0.09-0.08 0.14-0.11 0.04-0.03 0.07-0.06 0.11-0.09 0.04-0.03 0.08-0.07 0.12-0.11 0.04-0.04 0.08-0.07 0.12-0.1 0.04-0.03 0.07-0.07 0.11-0.1 0.04-0.04 0.08-0.08 0.12-0.11 0.03-0.03 0.06-0.06 0.1-0.09 0.04-0.04 0.09-0.08 0.13-0.13 0.03-0.03 0.06-0.06 0.09-0.09 0.02-0.02 0.03-0.03 0.05-0.05l0.91 0.66 0.57-0.63 -0.75-0.83c0.02-0.02 0.03-0.04 0.04-0.05 0.03-0.03 0.05-0.07 0.08-0.1 0.04-0.05 0.07-0.1 0.11-0.14 0.03-0.04 0.06-0.07 0.08-0.11 0.04-0.04 0.07-0.09 0.1-0.13 0.03-0.04 0.06-0.08 0.09-0.12 0.03-0.04 0.06-0.08 0.09-0.12 0.03-0.04 0.06-0.09 0.1-0.13 0.03-0.04 0.05-0.08 0.08-0.11 0.03-0.05 0.07-0.1 0.1-0.15 0.02-0.04 0.05-0.07 0.07-0.1 0.01-0.02 0.02-0.04 0.04-0.06l1.02 0.45 0.43-0.73 -0.9-0.66c0.01-0.02 0.02-0.04 0.04-0.06 0.02-0.04 0.03-0.07 0.05-0.11 0.03-0.05 0.06-0.11 0.08-0.17 0.02-0.04 0.04-0.08 0.06-0.12 0.03-0.05 0.05-0.1 0.07-0.16 0.02-0.04 0.04-0.09 0.06-0.13 0.02-0.05 0.04-0.1 0.07-0.14 0.02-0.05 0.04-0.1 0.06-0.15 0.02-0.04 0.04-0.09 0.06-0.14 0.02-0.05 0.04-0.1 0.06-0.16 0.02-0.04 0.03-0.08 0.05-0.12 0.01-0.02 0.01-0.04 0.02-0.06l1.09 0.23 0.26-0.81 -1.02-0.46c0.01-0.03 0.01-0.05 0.02-0.08C35.16 27.09 35.17 27.06 35.17 27.02zM22.5 36.21c-6.93 0-12.54-5.62-12.54-12.54 0-6.93 5.62-12.54 12.54-12.54 6.93 0 12.54 5.62 12.54 12.54C35.04 30.6 29.43 36.21 22.5 36.21z"/><circle display="none" fill="none" stroke="#94A4A4" stroke-width="2" stroke-miterlimit="10" cx="22.5" cy="23.66" r="12.24"/><path fill="#94A4A4" d="M43.21 14.14c0.02-0.03 0.03-0.06 0.05-0.09 0.02-0.04 0.04-0.08 0.06-0.12 0.02-0.04 0.04-0.09 0.06-0.13 0.01-0.03 0.02-0.05 0.04-0.08 0.02-0.06 0.05-0.12 0.07-0.17 0.01-0.01 0.01-0.02 0.02-0.04l1.17 0.14 0.28-1.25 -1.12-0.37c0-0.02 0-0.04 0-0.05 0-0.06 0.01-0.11 0.01-0.17 0-0.04 0-0.07 0-0.11 0-0.04 0-0.08 0-0.13 0-0.05 0-0.1 0-0.15 0-0.03 0-0.06 0-0.08 0-0.06-0.01-0.12-0.01-0.19 0-0.01 0-0.02 0-0.04l1.11-0.38 -0.29-1.25 -1.17 0.15c-0.01-0.02-0.02-0.04-0.02-0.06 -0.02-0.05-0.04-0.09-0.06-0.14 -0.02-0.04-0.03-0.07-0.05-0.11 -0.02-0.03-0.03-0.07-0.05-0.1 -0.02-0.05-0.05-0.1-0.07-0.14 -0.01-0.02-0.02-0.04-0.03-0.06 -0.03-0.06-0.07-0.12-0.1-0.18 -0.01-0.01-0.01-0.01-0.01-0.02l0.84-0.83 -0.81-1 -0.98 0.64c-0.02-0.01-0.03-0.03-0.04-0.04 -0.04-0.04-0.08-0.07-0.12-0.11 -0.03-0.02-0.06-0.05-0.09-0.07C41.83 7.38 41.8 7.35 41.77 7.33c-0.04-0.03-0.08-0.06-0.12-0.09 -0.02-0.02-0.04-0.03-0.06-0.05 -0.05-0.04-0.11-0.07-0.16-0.11 -0.01-0.01-0.02-0.01-0.03-0.02l0.39-1.11 -1.16-0.55 -0.61 1.01c-0.01 0-0.02-0.01-0.04-0.01 -0.05-0.02-0.11-0.03-0.16-0.05 -0.03-0.01-0.05-0.01-0.08-0.02 -0.05-0.01-0.1-0.02-0.14-0.03 -0.04-0.01-0.07-0.01-0.11-0.02 -0.04-0.01-0.08-0.02-0.12-0.02 -0.04-0.01-0.09-0.01-0.13-0.02 -0.02 0-0.04-0.01-0.06-0.01l-0.12-1.17h-1.28l-0.12 1.17c-0.02 0-0.03 0-0.04 0.01 -0.06 0.01-0.12 0.02-0.18 0.03 -0.03 0.01-0.06 0.01-0.09 0.02 -0.05 0.01-0.09 0.02-0.14 0.03 -0.04 0.01-0.08 0.02-0.13 0.03 -0.03 0.01-0.06 0.02-0.1 0.02 -0.05 0.02-0.11 0.03-0.16 0.05 -0.02 0.01-0.03 0.01-0.05 0.02l-0.62-1 -1.15 0.56 0.4 1.11C35.38 7.1 35.37 7.11 35.36 7.12c-0.05 0.03-0.1 0.07-0.15 0.11 -0.02 0.02-0.05 0.04-0.07 0.05 -0.04 0.03-0.08 0.06-0.11 0.09 -0.04 0.03-0.07 0.06-0.1 0.08 -0.02 0.02-0.05 0.04-0.08 0.07 -0.04 0.04-0.08 0.08-0.12 0.12 -0.01 0.01-0.03 0.02-0.04 0.04l-0.99-0.63 -0.8 1 0.84 0.82c-0.01 0.01-0.01 0.02-0.02 0.04C33.68 8.95 33.65 9 33.63 9.06c-0.02 0.03-0.03 0.05-0.04 0.08 -0.02 0.04-0.04 0.09-0.06 0.13 -0.02 0.04-0.04 0.08-0.05 0.12 -0.01 0.03-0.03 0.06-0.04 0.09 -0.02 0.05-0.04 0.11-0.06 0.16 -0.01 0.02-0.01 0.03-0.02 0.05l-1.17-0.14 -0.28 1.25 1.12 0.37c0 0.01 0 0.02 0 0.04 0 0.06-0.01 0.13-0.01 0.19 0 0.03 0 0.06 0 0.08 0 0.05 0 0.1 0 0.15 0 0.04 0 0.08 0 0.13 0 0.04 0 0.07 0 0.11 0 0.06 0.01 0.11 0.01 0.17 0 0.02 0 0.04 0 0.06l-1.11 0.39 0.29 1.25 1.17-0.15c0 0.01 0.01 0.02 0.01 0.03 0.02 0.06 0.05 0.12 0.07 0.18 0.01 0.02 0.02 0.05 0.03 0.07 0.02 0.05 0.04 0.09 0.06 0.14 0.02 0.04 0.04 0.07 0.06 0.11 0.02 0.03 0.03 0.07 0.05 0.1 0.03 0.05 0.05 0.09 0.08 0.14 0.01 0.02 0.02 0.04 0.03 0.05l-0.83 0.83 0.81 1 0.99-0.64c0.01 0.01 0.02 0.01 0.02 0.02 0.05 0.05 0.1 0.09 0.15 0.13 0.02 0.02 0.04 0.03 0.06 0.05 0.04 0.03 0.08 0.07 0.12 0.1 0.03 0.02 0.06 0.05 0.1 0.07 0.03 0.02 0.06 0.05 0.09 0.07 0.04 0.03 0.09 0.06 0.13 0.09 0.02 0.01 0.03 0.02 0.05 0.04l-0.39 1.11 1.16 0.55 0.61-1.01c0.02 0.01 0.04 0.01 0.06 0.02 0.04 0.01 0.09 0.03 0.13 0.04 0.04 0.01 0.08 0.02 0.12 0.03 0.03 0.01 0.07 0.02 0.11 0.03 0.05 0.01 0.09 0.02 0.14 0.03 0.03 0.01 0.06 0.01 0.08 0.02 0.06 0.01 0.11 0.02 0.17 0.03 0.01 0 0.03 0 0.04 0.01l0.12 1.17h1.28l0.12-1.17c0.02 0 0.03-0.01 0.05-0.01 0.06-0.01 0.12-0.02 0.17-0.03 0.03 0 0.07-0.01 0.1-0.02 0.04-0.01 0.09-0.02 0.13-0.03 0.05-0.01 0.09-0.02 0.14-0.03 0.03-0.01 0.06-0.01 0.09-0.02 0.06-0.02 0.12-0.03 0.18-0.05 0.01 0 0.03-0.01 0.04-0.01l0.62 1 1.15-0.56 -0.4-1.11c0.02-0.01 0.03-0.02 0.04-0.03 0.05-0.03 0.09-0.06 0.14-0.1 0.03-0.02 0.06-0.04 0.08-0.06 0.04-0.03 0.07-0.05 0.1-0.08 0.04-0.03 0.07-0.06 0.11-0.09 0.02-0.02 0.04-0.04 0.07-0.06 0.05-0.04 0.09-0.08 0.14-0.13 0.01-0.01 0.02-0.02 0.03-0.03l0.99 0.63 0.8-1 -0.84-0.82c0.01-0.01 0.02-0.03 0.03-0.05C43.16 14.24 43.18 14.19 43.21 14.14zM38.42 16.67c-2.8 0-5.08-2.27-5.08-5.07 0-2.8 2.27-5.08 5.08-5.08s5.08 2.27 5.08 5.08C43.49 14.4 41.22 16.67 38.42 16.67z"/><circle display="none" fill="none" cx="38.42" cy="11.6" r="4.84"/><path fill="#94A4A4" d="M8.55 18.67l1.19 0.06 0.19-1.64 -1.17-0.21c-0.03-0.2-0.07-0.4-0.13-0.6 -0.05-0.15-0.1-0.3-0.17-0.45l0.88-0.79 -1.03-1.3 -0.97 0.68c-0.16-0.13-0.34-0.24-0.51-0.33 -0.14-0.07-0.28-0.14-0.43-0.2l0.06-1.19 -1.64-0.19L4.61 13.7c-0.19 0.03-0.38 0.07-0.56 0.12 -0.16 0.05-0.33 0.11-0.48 0.18l-0.79-0.88 -1.29 1.03 0.68 0.97c-0.12 0.16-0.23 0.34-0.33 0.51 -0.07 0.14-0.14 0.28-0.2 0.43L0.44 16l-0.19 1.64 1.17 0.21c0.03 0.21 0.07 0.41 0.13 0.6 0.05 0.15 0.1 0.3 0.17 0.45L0.83 19.69l1.03 1.3 0.97-0.68c0.14 0.11 0.28 0.2 0.43 0.28 0.17 0.09 0.34 0.18 0.52 0.24L3.72 22.02l1.64 0.19 0.21-1.17c0.16-0.02 0.32-0.05 0.47-0.09 0.2-0.05 0.39-0.12 0.58-0.2l0.79 0.88 1.3-1.03 -0.68-0.97c0.1-0.13 0.19-0.26 0.27-0.4C8.39 19.05 8.48 18.87 8.55 18.67zM4.72 20.61c-1.79-0.21-3.08-1.83-2.87-3.62 0.21-1.79 1.83-3.08 3.62-2.87s3.08 1.83 2.87 3.62S6.51 20.82 4.72 20.61z"/><circle display="none" fill="none" stroke="#94A4A4" stroke-width="2" stroke-miterlimit="10" cx="5.09" cy="17.37" r="3.06"/></svg>